<svg width="15" height="15" viewBox="0 0 15 15" fill="none" xmlns="http://www.w3.org/2000/svg">
<path d="M9.68751 6.93276L7.43751 5.29776L5.18751 6.93276L6.04701 9.57726H8.82801L9.68751 6.93276ZM14.375 7.43751C14.375 5.63001 13.6843 3.98451 12.5525 2.75001V5.29776L14.3083 8.40276C14.3528 8.08676 14.375 7.76501 14.375 7.43751ZM10.0625 1.01376C9.22939 0.672929 8.33764 0.4984 7.43751 0.500011C6.50826 0.500011 5.62251 0.682261 4.81251 1.01376L7.43751 2.28126L10.0625 1.01376ZM2.32251 2.75001C1.14819 4.02838 0.497623 5.70164 0.500007 7.43751C0.500007 7.76551 0.522257 8.08701 0.566757 8.40201L2.32326 5.29701L2.32251 2.75001ZM4.06251 11.9608L1.40901 10.8725C1.87888 11.6958 2.51214 12.4143 3.26988 12.9838C4.02761 13.5534 4.89382 13.962 5.81526 14.1845L4.06251 11.9608ZM9.05976 14.1845C9.9812 13.962 10.8474 13.5534 11.6051 12.9838C12.3629 12.4143 12.9961 11.6958 13.466 10.8725L10.8125 11.9608L9.05976 14.1845Z" fill="currentColor"/>
<path d="M7.43751 5.29776V2.28126M7.43751 5.29776L9.68751 6.93276M7.43751 5.29776L5.18751 6.93276M7.43751 2.28126L4.81251 1.01451M7.43751 2.28126L10.0625 1.01451C9.22944 0.673419 8.33769 0.498635 7.43751 0.500008C6.50826 0.500008 5.62251 0.682258 4.81251 1.01376C3.86511 1.40269 3.01498 1.99548 2.32251 2.75001M9.68751 6.93276L8.82801 9.57726M9.68751 6.93276L12.5518 5.29701L14.3083 8.40201C14.3528 8.08701 14.375 7.76551 14.375 7.43751C14.3774 5.70164 13.7268 4.02837 12.5525 2.75001M5.18751 6.93276L6.04701 9.57726M5.18751 6.93276L2.32251 5.29701M8.82801 9.57726L10.8125 11.9608M8.82801 9.57726H6.04701M10.8125 11.9608L9.05976 14.1845C9.9812 13.962 10.8474 13.5534 11.6051 12.9838C12.3629 12.4143 12.9961 11.6958 13.466 10.8725M10.8125 11.9608L13.466 10.8725M6.04701 9.57726L4.06251 11.9608M4.06251 11.9608L5.81526 14.1845M4.06251 11.9608L1.40901 10.8718M10.0625 1.01376C11.0099 1.40269 11.86 1.99548 12.5525 2.75001M12.5525 2.75001V5.29776M2.32251 2.75001C1.14819 4.02837 0.497623 5.70164 0.500007 7.43751C0.500007 7.76551 0.522257 8.08701 0.566757 8.40201M2.32251 2.75001V5.29776M0.566757 8.40201C0.687775 9.27159 0.973638 10.1093 1.40901 10.8718M0.566757 8.40201L2.32326 5.29701M9.05901 14.1845C8.52783 14.3113 7.9836 14.3752 7.43751 14.375C6.89116 14.3753 6.34668 14.3113 5.81526 14.1845M5.81526 14.1845C4.89382 13.962 4.02761 13.5527 3.26988 12.9831C2.51214 12.4135 1.87888 11.695 1.40901 10.8718M13.466 10.8725C13.9014 10.1101 14.1872 9.27084 14.3083 8.40126" stroke="currentColor" stroke-linecap="round" stroke-linejoin="round"/>
</svg>
