<svg width="16" height="16" viewBox="0 0 16 16" fill="none" xmlns="http://www.w3.org/2000/svg">
<path d="M10.6667 1.3335C12.8758 1.3335 14.6667 3.03012 14.6667 5.12296C14.6667 5.74969 14.5395 6.40855 14.2852 7.09953L13.2189 6.03621C13.2836 5.76628 13.3207 5.50675 13.3306 5.25787L13.3333 5.12296C13.3333 3.78309 12.1551 2.66681 10.6667 2.66681C10.1593 2.66681 9.67734 2.79712 9.26306 3.03478L7.39644 4.83387C7.13609 5.09421 7.13609 5.51631 7.39644 5.77665C7.65678 6.03703 8.07891 6.03703 8.33925 5.77665L10.1485 3.89506L11.056 4.81481L13.6301 7.38868C14.4111 8.16975 14.4111 9.43609 13.6301 10.2171C13.3801 10.4671 13.0805 10.637 12.763 10.727L12.73 10.7356C12.87 11.3786 12.69 12.0772 12.1902 12.5771C11.6756 13.0916 10.9505 13.2672 10.2922 13.1038C10.2019 13.4129 10.0335 13.6979 9.78797 13.9217C9.08644 14.5609 8.06166 14.6202 7.29428 14.0596L7.17609 13.957L6.657 13.4914C3.10788 10.2536 1.33331 7.46413 1.33331 5.12296C1.33331 3.03009 3.12419 1.3335 5.33334 1.3335C6.35809 1.3335 7.29284 1.69856 8.00056 2.2989C8.70775 1.69834 9.64222 1.3335 10.6667 1.3335ZM5.33334 2.66681C3.84494 2.66681 2.66666 3.78309 2.66666 5.12296C2.66666 6.99687 4.25753 9.49762 7.54728 12.4988L7.84666 12.7675C8.11041 13.0336 8.59859 13.2397 8.88238 12.9661C9.14013 12.7175 9.11375 12.3717 8.91159 12.1153L8.50009 11.6955L6.95956 10.155L6.93122 10.1301L7.88522 9.1754L9.26609 10.5761L9.78797 11.0978C9.82339 11.1332 9.85743 11.17 9.89 11.208L10.2231 11.5474C10.5702 11.8946 11.0006 11.9074 11.2609 11.6471C11.5212 11.3867 11.513 10.9517 11.1659 10.6046L9.57141 8.98672L8.82322 8.23806L9.76587 7.29471L10.2482 7.77718C10.297 7.81765 10.3439 7.86039 10.3888 7.90525L10.9967 8.52672L11.7445 9.27431C12.0048 9.53465 12.4269 9.53465 12.6873 9.27431C12.9476 9.01397 12.9476 8.59187 12.6873 8.3315L10.178 5.82281L9.28206 6.71947C8.501 7.50053 7.23469 7.50053 6.45363 6.71947C5.67259 5.93843 5.67259 4.67209 6.45363 3.89106L7.07734 3.26681L7.013 3.21593C6.54359 2.86406 5.95763 2.66681 5.33334 2.66681Z" fill="currentColor"/>
</svg>
