<svg width="13" height="14" viewBox="0 0 13 14" fill="none" xmlns="http://www.w3.org/2000/svg">
<mask id="path-1-inside-1_1196_6307" fill="white">
<path fill-rule="evenodd" clip-rule="evenodd" d="M3.5625 0C2.61767 0 1.71153 0.375334 1.04343 1.04343C0.375334 1.71153 0 2.61767 0 3.5625V11.0625C0 11.8084 0.296316 12.5238 0.823762 13.0512C1.35121 13.5787 2.06658 13.875 2.8125 13.875H11.0625C11.4106 13.875 11.7444 13.7367 11.9906 13.4906C12.2367 13.2444 12.375 12.9106 12.375 12.5625V1.3125C12.375 0.964403 12.2367 0.630564 11.9906 0.384422C11.7444 0.138281 11.4106 0 11.0625 0H3.5625ZM11.25 8.25V1.3125C11.25 1.26277 11.2302 1.21508 11.1951 1.17992C11.1599 1.14475 11.1122 1.125 11.0625 1.125H3.5625C2.91603 1.125 2.29605 1.38181 1.83893 1.83893C1.38181 2.29605 1.125 2.91603 1.125 3.5625V8.8125C1.61132 8.4464 2.20378 8.24891 2.8125 8.25H11.25ZM11.25 9.375H2.8125C2.36495 9.375 1.93573 9.55279 1.61926 9.86926C1.30279 10.1857 1.125 10.6149 1.125 11.0625C1.125 11.5101 1.30279 11.9393 1.61926 12.2557C1.93573 12.5722 2.36495 12.75 2.8125 12.75H11.0625C11.1122 12.75 11.1599 12.7302 11.1951 12.6951C11.2302 12.6599 11.25 12.6122 11.25 12.5625V9.375Z"/>
</mask>
<path fill-rule="evenodd" clip-rule="evenodd" d="M3.5625 0C2.61767 0 1.71153 0.375334 1.04343 1.04343C0.375334 1.71153 0 2.61767 0 3.5625V11.0625C0 11.8084 0.296316 12.5238 0.823762 13.0512C1.35121 13.5787 2.06658 13.875 2.8125 13.875H11.0625C11.4106 13.875 11.7444 13.7367 11.9906 13.4906C12.2367 13.2444 12.375 12.9106 12.375 12.5625V1.3125C12.375 0.964403 12.2367 0.630564 11.9906 0.384422C11.7444 0.138281 11.4106 0 11.0625 0H3.5625ZM11.25 8.25V1.3125C11.25 1.26277 11.2302 1.21508 11.1951 1.17992C11.1599 1.14475 11.1122 1.125 11.0625 1.125H3.5625C2.91603 1.125 2.29605 1.38181 1.83893 1.83893C1.38181 2.29605 1.125 2.91603 1.125 3.5625V8.8125C1.61132 8.4464 2.20378 8.24891 2.8125 8.25H11.25ZM11.25 9.375H2.8125C2.36495 9.375 1.93573 9.55279 1.61926 9.86926C1.30279 10.1857 1.125 10.6149 1.125 11.0625C1.125 11.5101 1.30279 11.9393 1.61926 12.2557C1.93573 12.5722 2.36495 12.75 2.8125 12.75H11.0625C11.1122 12.75 11.1599 12.7302 11.1951 12.6951C11.2302 12.6599 11.25 12.6122 11.25 12.5625V9.375Z" fill="currentColor"/>
<path d="M3.5625 0V-1.5V0ZM0 3.5625H-1.5H0ZM0 11.0625H-1.5H0ZM12.375 1.3125H10.875H12.375ZM11.25 8.25V9.75H12.75V8.25H11.25ZM1.125 3.5625H-0.375H1.125ZM1.125 8.8125H-0.375V11.8192L2.02714 10.0109L1.125 8.8125ZM2.8125 8.25L2.80982 9.75H2.8125V8.25ZM11.25 9.375H12.75V7.875H11.25V9.375ZM1.125 11.0625H-0.375H1.125ZM3.5625 0V-1.5C2.21984 -1.5 0.932175 -0.966631 -0.0172279 -0.0172279L1.04343 1.04343L2.10409 2.10409C2.49089 1.7173 3.01549 1.5 3.5625 1.5V0ZM1.04343 1.04343L-0.0172279 -0.0172279C-0.966631 0.932175 -1.5 2.21984 -1.5 3.5625H0H1.5C1.5 3.01549 1.7173 2.49089 2.10409 2.10409L1.04343 1.04343ZM0 3.5625H-1.5V11.0625H0H1.5V3.5625H0ZM0 11.0625H-1.5C-1.5 12.2062 -1.04565 13.3031 -0.236898 14.1119L0.823762 13.0512L1.88442 11.9906C1.63828 11.7444 1.5 11.4106 1.5 11.0625H0ZM0.823762 13.0512L-0.236898 14.1119C0.571854 14.9207 1.66876 15.375 2.8125 15.375V13.875V12.375C2.4644 12.375 2.13056 12.2367 1.88442 11.9906L0.823762 13.0512ZM2.8125 13.875V15.375H11.0625V13.875V12.375H2.8125V13.875ZM11.0625 13.875V15.375C11.8084 15.375 12.5238 15.0787 13.0512 14.5512L11.9906 13.4906L10.9299 12.4299C10.9651 12.3948 11.0128 12.375 11.0625 12.375V13.875ZM11.9906 13.4906L13.0512 14.5512C13.5787 14.0238 13.875 13.3084 13.875 12.5625H12.375H10.875C10.875 12.5128 10.8948 12.4651 10.9299 12.4299L11.9906 13.4906ZM12.375 12.5625H13.875V1.3125H12.375H10.875V12.5625H12.375ZM12.375 1.3125H13.875C13.875 0.566579 13.5787 -0.148792 13.0512 -0.676238L11.9906 0.384422L10.9299 1.44508C10.8948 1.40992 10.875 1.36223 10.875 1.3125H12.375ZM11.9906 0.384422L13.0512 -0.676238C12.5238 -1.20368 11.8084 -1.5 11.0625 -1.5V0V1.5C11.0128 1.5 10.9651 1.48025 10.9299 1.44508L11.9906 0.384422ZM11.0625 0V-1.5H3.5625V0V1.5H11.0625V0ZM11.25 8.25H12.75V1.3125H11.25H9.75V8.25H11.25ZM11.25 1.3125H12.75C12.75 0.864951 12.5722 0.435728 12.2557 0.119257L11.1951 1.17992L10.1344 2.24058C9.88828 1.99443 9.75 1.66059 9.75 1.3125H11.25ZM11.1951 1.17992L12.2557 0.119257C11.9393 -0.197213 11.51 -0.375 11.0625 -0.375V1.125V2.625C10.7144 2.625 10.3806 2.48672 10.1344 2.24058L11.1951 1.17992ZM11.0625 1.125V-0.375H3.5625V1.125V2.625H11.0625V1.125ZM3.5625 1.125V-0.375C2.51821 -0.375 1.51669 0.0398423 0.778267 0.778267L1.83893 1.83893L2.89959 2.89959C3.0754 2.72377 3.31386 2.625 3.5625 2.625V1.125ZM1.83893 1.83893L0.778267 0.778267C0.0398423 1.51669 -0.375 2.51821 -0.375 3.5625H1.125H2.625C2.625 3.31386 2.72377 3.0754 2.89959 2.89959L1.83893 1.83893ZM1.125 3.5625H-0.375V8.8125H1.125H2.625V3.5625H1.125ZM1.125 8.8125L2.02714 10.0109C2.2527 9.84109 2.52749 9.74949 2.80982 9.75L2.8125 8.25L2.81518 6.75C1.88007 6.74833 0.969939 7.05171 0.222856 7.61411L1.125 8.8125ZM2.8125 8.25V9.75H11.25V8.25V6.75H2.8125V8.25ZM11.25 9.375V7.875H2.8125V9.375V10.875H11.25V9.375ZM2.8125 9.375V7.875C1.96712 7.875 1.15637 8.21082 0.558597 8.8086L1.61926 9.86926L2.67992 10.9299C2.71508 10.8948 2.76277 10.875 2.8125 10.875V9.375ZM1.61926 9.86926L0.558597 8.8086C-0.0391749 9.40637 -0.375 10.2171 -0.375 11.0625H1.125H2.625C2.625 11.0128 2.64475 10.9651 2.67992 10.9299L1.61926 9.86926ZM1.125 11.0625H-0.375C-0.375 11.9079 -0.0391749 12.7186 0.558597 13.3164L1.61926 12.2557L2.67992 11.1951C2.64475 11.1599 2.625 11.1122 2.625 11.0625H1.125ZM1.61926 12.2557L0.558597 13.3164C1.15637 13.9142 1.96712 14.25 2.8125 14.25V12.75V11.25C2.76277 11.25 2.71508 11.2302 2.67992 11.1951L1.61926 12.2557ZM2.8125 12.75V14.25H11.0625V12.75V11.25H2.8125V12.75ZM11.0625 12.75V14.25C11.51 14.25 11.9393 14.0722 12.2557 13.7557L11.1951 12.6951L10.1344 11.6344C10.3806 11.3883 10.7144 11.25 11.0625 11.25V12.75ZM11.1951 12.6951L12.2557 13.7557C12.5722 13.4393 12.75 13.01 12.75 12.5625H11.25H9.75C9.75 12.2144 9.88828 11.8806 10.1344 11.6344L11.1951 12.6951ZM11.25 12.5625H12.75V9.375H11.25H9.75V12.5625H11.25Z" fill="currentColor" mask="url(#path-1-inside-1_1196_6307)"/>
</svg>
