<svg width="17" height="18" viewBox="0 0 17 18" fill="none" xmlns="http://www.w3.org/2000/svg">
<path d="M4.03905 11.3366L2.65819 16.1786M0.750193 15.6334L4.56491 16.7211M2.02948 7.34571L4.51734 0.75L9.21405 2.08714L7.84862 9.00429C7.76873 9.41761 7.60377 9.80981 7.36423 10.156C7.12468 10.5022 6.81578 10.7948 6.45713 11.0152C6.09848 11.2356 5.69791 11.3791 5.28086 11.4365C4.86382 11.4938 4.43939 11.4639 4.03454 11.3485C3.62969 11.2331 3.25325 11.0348 2.92912 10.7662C2.60499 10.4975 2.34025 10.1645 2.1517 9.78806C1.96316 9.41167 1.85493 9.00019 1.83389 8.57974C1.81285 8.15929 1.87946 7.73905 2.02948 7.34571Z" stroke="currentColor" stroke-width="1.5" stroke-linecap="round" stroke-linejoin="round"/>
<path d="M3.27534 4.0376L8.52876 5.54831" stroke="currentColor" stroke-width="1.5"/>
<path d="M10.2426 11.1411C10.7891 11.4107 11.404 11.5097 12.0075 11.4252C12.6109 11.3407 13.175 11.0766 13.6264 10.6672C14.0778 10.2579 14.3955 9.7222 14.5384 9.12984C14.6813 8.53748 14.6427 7.91584 14.4276 7.34571L11.9372 0.75L11.1966 0.959571M12.4168 11.3366L13.7976 16.1786M15.7056 15.6334L11.8909 16.7211M13.1805 4.053L11.0346 4.67014" stroke="currentColor" stroke-width="1.5" stroke-linecap="round" stroke-linejoin="round"/>
</svg>
