<svg width="16" height="16" viewBox="0 0 16 16" fill="none" xmlns="http://www.w3.org/2000/svg">
<path d="M3 13.5C3 13.5 3 8.5 3 6.5C3 4.5 4.5 2 8 2C11.5 2 13 4.5 13 6.5V13.5M5.5 13.5V11C5.5 10.17 6.17 9.5 7 9.5H9C9.83 9.5 10.5 10.17 10.5 11V13.5M1.5 13.5H14.5" stroke="currentColor" stroke-width="1.5" stroke-linecap="round" stroke-linejoin="round"/>
<path d="M6 6.5C6 7.05 5.78 7.5 5.5 7.5C5.22 7.5 5 7.05 5 6.5C5 5.95 5.22 5.5 5.5 5.5C5.78 5.5 6 5.95 6 6.5ZM11 6.5C11 7.05 10.78 7.5 10.5 7.5C10.22 7.5 10 7.05 10 6.5C10 5.95 10.22 5.5 10.5 5.5C10.78 5.5 11 5.95 11 6.5Z" fill="currentColor"/>
<path d="M6.5 8.5C6.5 8.5 7 9 8 9C9 9 9.5 8.5 9.5 8.5" stroke="currentColor" stroke-width="1.5" stroke-linecap="round"/>
</svg>
