<svg width="19" height="16" viewBox="0 0 19 16" fill="none" xmlns="http://www.w3.org/2000/svg">
<path d="M9.42167 9.18833C10.0373 9.25146 10.6076 9.54066 11.0223 10C11.437 10.4593 11.6666 11.0562 11.6667 11.675C11.6667 12.96 10.8833 14.0233 9.83 14.725C8.77167 15.4317 7.355 15.8417 5.83333 15.8417C4.31167 15.8417 2.895 15.4317 1.83667 14.725C0.781667 14.025 0 12.96 0 11.675C0 11.012 0.263392 10.3761 0.732233 9.90723C1.20107 9.43839 1.83696 9.175 2.5 9.175H9.16667L9.42167 9.18833ZM15.83 9.175C16.493 9.175 17.1289 9.43839 17.5978 9.90723C18.0666 10.3761 18.33 11.012 18.33 11.675C18.33 12.8333 17.6117 13.6933 16.6917 14.2217C15.7783 14.7467 14.5833 15.0083 13.33 15.0083C12.9089 15.0072 12.4978 14.9767 12.0967 14.9167C12.4867 14.4567 12.8133 13.9283 13.0317 13.3333C13.1306 13.3389 13.23 13.3417 13.33 13.3417C14.3783 13.3417 15.2667 13.12 15.8617 12.7783C16.45 12.44 16.6633 12.05 16.6633 11.675C16.6633 11.454 16.5755 11.242 16.4193 11.0857C16.263 10.9295 16.051 10.8417 15.83 10.8417H13.2467C13.1211 10.2369 12.8626 9.6676 12.49 9.175H15.83ZM2.5 10.8417C2.27899 10.8417 2.06702 10.9295 1.91074 11.0857C1.75446 11.242 1.66667 11.454 1.66667 11.675C1.66667 12.23 2.005 12.835 2.76 13.3383C3.51 13.8383 4.59333 14.175 5.83333 14.175C7.07167 14.175 8.15667 13.8383 8.90667 13.3383C9.66167 12.835 10 12.23 10 11.675C10 11.4829 9.9337 11.2967 9.81222 11.1479C9.69073 10.999 9.52156 10.8968 9.33333 10.8583L9.16667 10.8417H2.5ZM6.21833 0.0233332C7.14265 0.118188 7.99897 0.552374 8.62174 1.24195C9.2445 1.93152 9.58949 2.8275 9.59 3.75667L9.57 4.14C9.47437 5.06371 9.03985 5.91922 8.35036 6.54131C7.66087 7.16339 6.76532 7.50791 5.83667 7.50833L5.45333 7.48833C4.59472 7.40073 3.7926 7.01964 3.18232 6.40935C2.57203 5.79907 2.19094 4.99695 2.10333 4.13833L2.08333 3.755C2.08333 2.7594 2.47872 1.80455 3.18256 1.1004C3.8864 0.396252 4.84107 0.000441899 5.83667 0L6.21833 0.0233332ZM13.75 1.67C14.133 1.67 14.5123 1.74544 14.8662 1.89202C15.22 2.03859 15.5416 2.25343 15.8124 2.52427C16.0832 2.79511 16.2981 3.11664 16.4446 3.47051C16.5912 3.82437 16.6667 4.20365 16.6667 4.58667C16.6667 4.96969 16.5912 5.34896 16.4446 5.70283C16.2981 6.05669 16.0832 6.37822 15.8124 6.64906C15.5416 6.9199 15.22 7.13474 14.8662 7.28132C14.5123 7.42789 14.133 7.50333 13.75 7.50333C12.9765 7.50333 12.2346 7.19604 11.6876 6.64906C11.1406 6.10208 10.8333 5.36022 10.8333 4.58667C10.8333 3.81312 11.1406 3.07125 11.6876 2.52427C12.2346 1.97729 12.9765 1.67 13.75 1.67ZM5.83667 1.67C5.56264 1.67 5.2913 1.72397 5.03813 1.82884C4.78497 1.9337 4.55494 2.08741 4.36117 2.28117C4.16741 2.47494 4.0137 2.70497 3.90884 2.95813C3.80397 3.2113 3.75 3.48264 3.75 3.75667C3.75 4.03069 3.80397 4.30203 3.90884 4.5552C4.0137 4.80837 4.16741 5.0384 4.36117 5.23216C4.55494 5.42593 4.78497 5.57963 5.03813 5.6845C5.2913 5.78936 5.56264 5.84333 5.83667 5.84333C6.39008 5.84333 6.92084 5.62349 7.31216 5.23216C7.70349 4.84084 7.92333 4.31009 7.92333 3.75667C7.92333 3.20325 7.70349 2.6725 7.31216 2.28117C6.92084 1.88984 6.39008 1.67 5.83667 1.67ZM13.75 3.33667C13.4185 3.33667 13.1005 3.46836 12.8661 3.70278C12.6317 3.9372 12.5 4.25515 12.5 4.58667C12.5 4.91819 12.6317 5.23613 12.8661 5.47055C13.1005 5.70497 13.4185 5.83667 13.75 5.83667C14.0815 5.83667 14.3995 5.70497 14.6339 5.47055C14.8683 5.23613 15 4.91819 15 4.58667C15 4.25515 14.8683 3.9372 14.6339 3.70278C14.3995 3.46836 14.0815 3.33667 13.75 3.33667Z" fill="black"/>
</svg>
