<svg width="20" height="20" viewBox="0 0 20 20" fill="none" xmlns="http://www.w3.org/2000/svg">
<path d="M10.2547 11.68C10.8703 11.7432 11.4406 12.0324 11.8553 12.4917C12.27 12.951 12.4996 13.5479 12.4997 14.1667C12.4997 15.4517 11.7163 16.515 10.663 17.2167C9.60467 17.9234 8.18801 18.3334 6.66634 18.3334C5.14467 18.3334 3.72801 17.9234 2.66967 17.2167C1.61467 16.5167 0.833008 15.4517 0.833008 14.1667C0.833008 13.5037 1.0964 12.8678 1.56524 12.3989C2.03408 11.9301 2.66997 11.6667 3.33301 11.6667H9.99967L10.2547 11.68ZM16.663 11.6667C17.326 11.6667 17.9619 11.9301 18.4308 12.3989C18.8996 12.8678 19.163 13.5037 19.163 14.1667C19.163 15.325 18.4447 16.185 17.5247 16.7134C16.6113 17.2384 15.4163 17.5 14.163 17.5C13.7419 17.4989 13.3308 17.4684 12.9297 17.4084C13.3197 16.9484 13.6463 16.42 13.8647 15.825C13.9636 15.8306 14.063 15.8334 14.163 15.8334C15.2113 15.8334 16.0997 15.6117 16.6947 15.27C17.283 14.9317 17.4963 14.5417 17.4963 14.1667C17.4963 13.9457 17.4085 13.7337 17.2523 13.5774C17.096 13.4212 16.884 13.3334 16.663 13.3334H14.0797C13.9541 12.7286 13.6956 12.1593 13.323 11.6667H16.663ZM3.33301 13.3334C3.11199 13.3334 2.90003 13.4212 2.74375 13.5774C2.58747 13.7337 2.49967 13.9457 2.49967 14.1667C2.49967 14.7217 2.83801 15.3267 3.59301 15.83C4.34301 16.33 5.42634 16.6667 6.66634 16.6667C7.90467 16.6667 8.98967 16.33 9.73967 15.83C10.4947 15.3267 10.833 14.7217 10.833 14.1667C10.833 13.9746 10.7667 13.7884 10.6452 13.6396C10.5237 13.4907 10.3546 13.3885 10.1663 13.35L9.99967 13.3334H3.33301ZM7.05134 2.51503C7.97565 2.60989 8.83197 3.04407 9.45474 3.73364C10.0775 4.42322 10.4225 5.3192 10.423 6.24837L10.403 6.6317C10.3074 7.55541 9.87286 8.41092 9.18337 9.03301C8.49387 9.65509 7.59832 9.99961 6.66967 10L6.28634 9.98003C5.42773 9.89243 4.62561 9.51134 4.01532 8.90105C3.40504 8.29077 3.02394 7.48865 2.93634 6.63003L2.91634 6.2467C2.91634 5.2511 3.31173 4.29625 4.01557 3.5921C4.7194 2.88795 5.67408 2.49214 6.66967 2.4917L7.05134 2.51503ZM14.583 4.1617C14.966 4.1617 15.3453 4.23714 15.6992 4.38372C16.053 4.53029 16.3746 4.74513 16.6454 5.01597C16.9162 5.28681 17.1311 5.60834 17.2777 5.96221C17.4242 6.31607 17.4997 6.69534 17.4997 7.07837C17.4997 7.46139 17.4242 7.84066 17.2777 8.19453C17.1311 8.54839 16.9162 8.86992 16.6454 9.14076C16.3746 9.4116 16.053 9.62644 15.6992 9.77302C15.3453 9.91959 14.966 9.99503 14.583 9.99503C13.8095 9.99503 13.0676 9.68774 12.5206 9.14076C11.9736 8.59378 11.6663 7.85191 11.6663 7.07837C11.6663 6.30482 11.9736 5.56295 12.5206 5.01597C13.0676 4.46899 13.8095 4.1617 14.583 4.1617ZM6.66967 4.1617C6.39565 4.1617 6.12431 4.21567 5.87114 4.32054C5.61798 4.4254 5.38794 4.5791 5.19418 4.77287C5.00041 4.96663 4.84671 5.19667 4.74185 5.44983C4.63698 5.703 4.58301 5.97434 4.58301 6.24837C4.58301 6.52239 4.63698 6.79373 4.74185 7.0469C4.84671 7.30007 5.00041 7.5301 5.19418 7.72386C5.38794 7.91763 5.61798 8.07133 5.87114 8.1762C6.12431 8.28106 6.39565 8.33503 6.66967 8.33503C7.22309 8.33503 7.75384 8.11519 8.14517 7.72386C8.5365 7.33254 8.75634 6.80178 8.75634 6.24837C8.75634 5.69495 8.5365 5.1642 8.14517 4.77287C7.75384 4.38154 7.22309 4.1617 6.66967 4.1617ZM14.583 5.82837C14.2515 5.82837 13.9335 5.96006 13.6991 6.19448C13.4647 6.4289 13.333 6.74685 13.333 7.07837C13.333 7.40989 13.4647 7.72783 13.6991 7.96225C13.9335 8.19667 14.2515 8.32837 14.583 8.32837C14.9145 8.32837 15.2325 8.19667 15.4669 7.96225C15.7013 7.72783 15.833 7.40989 15.833 7.07837C15.833 6.74685 15.7013 6.4289 15.4669 6.19448C15.2325 5.96006 14.9145 5.82837 14.583 5.82837Z" fill="black"/>
</svg>
