<svg width="15" height="13" viewBox="0 0 15 13" fill="none" xmlns="http://www.w3.org/2000/svg">
<path d="M5.53947 8.27632V9.30262C5.53947 9.93774 5.28717 10.5469 4.83807 10.9959C4.38897 11.445 3.77986 11.6973 3.14474 11.6973C2.50961 11.6973 1.9005 11.445 1.4514 10.9959C1.0023 10.5469 0.75 9.93774 0.75 9.30262V4.51318M8.96053 8.27632V9.30262C8.96053 9.93774 9.21283 10.5469 9.66193 10.9959C10.111 11.445 10.7201 11.6973 11.3553 11.6973C11.9904 11.6973 12.5995 11.445 13.0486 10.9959C13.4977 10.5469 13.75 9.93774 13.75 9.30262V4.51318" stroke="currentColor" stroke-width="1.5" stroke-linecap="round" stroke-linejoin="round"/>
<path d="M9.98684 0.75H4.51316C2.43482 0.75 0.75 2.43481 0.75 4.51313C0.75 6.59145 2.43482 8.27626 4.51316 8.27626H9.98684C12.0652 8.27626 13.75 6.59145 13.75 4.51313C13.75 2.43481 12.0652 0.75 9.98684 0.75Z" stroke="currentColor" stroke-width="1.5"/>
<path d="M6.22359 4.51343H3.48675M4.85517 3.14502V5.88184" stroke="currentColor" stroke-width="1.5" stroke-linecap="round" stroke-linejoin="round"/>
<path d="M10.6713 3.39502C10.911 3.39521 11.1049 3.58991 11.1049 3.82959C11.1047 4.06911 10.9108 4.26299 10.6713 4.26318C10.4316 4.26318 10.2369 4.06923 10.2367 3.82959C10.2367 3.58979 10.4315 3.39502 10.6713 3.39502Z" fill="black" stroke="currentColor" stroke-width="0.5"/>
<path d="M9.30204 5.10498C9.54168 5.10517 9.73563 5.29987 9.73563 5.53955C9.73543 5.77907 9.54156 5.97295 9.30204 5.97314C9.06235 5.97314 8.86766 5.77919 8.86747 5.53955C8.86747 5.29975 9.06223 5.10498 9.30204 5.10498Z" fill="black" stroke="currentColor" stroke-width="0.5"/>
</svg>
